<svg xmlns="http://www.w3.org/2000/svg" width="16.949" height="16.949" viewBox="0 0 16.949 16.949">
  <path id="Icon_material-copyright" data-name="Icon material-copyright" d="M9.847,10.509a2.167,2.167,0,0,1,.254-.737,1.482,1.482,0,0,1,.5-.525,1.5,1.5,0,0,1,.771-.195,1.536,1.536,0,0,1,.534.11,1.366,1.366,0,0,1,.441.305,1.632,1.632,0,0,1,.288.449,1.484,1.484,0,0,1,.119.542h1.517a3.034,3.034,0,0,0-.237-1.093,2.543,2.543,0,0,0-.593-.856,2.768,2.768,0,0,0-.915-.559,3.274,3.274,0,0,0-1.178-.195,3.312,3.312,0,0,0-1.441.288,2.914,2.914,0,0,0-1.017.78,3.186,3.186,0,0,0-.6,1.153,4.963,4.963,0,0,0-.2,1.39v.229a4.962,4.962,0,0,0,.195,1.39,3.081,3.081,0,0,0,.6,1.144A2.893,2.893,0,0,0,9.9,14.9a3.439,3.439,0,0,0,1.441.288,3.232,3.232,0,0,0,1.119-.195,2.891,2.891,0,0,0,.915-.534,2.587,2.587,0,0,0,.627-.8,2.281,2.281,0,0,0,.254-.975H12.737a1.207,1.207,0,0,1-.127.492,1.247,1.247,0,0,1-.305.39,1.335,1.335,0,0,1-.441.254,1.683,1.683,0,0,1-.508.085,1.439,1.439,0,0,1-.754-.195,1.482,1.482,0,0,1-.5-.525,2.214,2.214,0,0,1-.254-.746,5.712,5.712,0,0,1-.068-.847v-.229a5.646,5.646,0,0,1,.068-.856ZM11.475,3a8.475,8.475,0,1,0,8.475,8.475A8.478,8.478,0,0,0,11.475,3Zm0,15.254a6.78,6.78,0,1,1,6.78-6.78A6.789,6.789,0,0,1,11.475,18.254Z" transform="translate(-3 -3)" fill="#fff"/>
</svg>
