<svg version="1.2" xmlns="http://www.w3.org/2000/svg" viewBox="0 0 96 96" width="96" height="96">
	<title>Group 782-svg</title>
	<defs>
		<linearGradient id="g1" x1="79.7" y1="16.4" x2="17.8" y2="80.9" gradientUnits="userSpaceOnUse">
			<stop offset="0" stop-color="#20bdff"/>
			<stop offset="1" stop-color="#5433ff"/>
		</linearGradient>
	</defs>
	<style>
		.s0 { fill: url(#g1) } 
		.s1 { fill: #ffffff } 
	</style>
	<g id="Group_782">
		<g id="Layer">
			<path id="logo-background-2" class="s0" d="m47.8 0.5c19.2 0 36.4 11.5 43.7 29.2 7.3 17.7 3.3 38-10.2 51.6-13.6 13.5-33.9 17.5-51.6 10.2-17.7-7.3-29.2-24.5-29.2-43.7 0-6.2 1.2-12.4 3.6-18.1 2.4-5.7 5.9-10.9 10.3-15.3 4.4-4.4 9.6-7.9 15.3-10.3 5.7-2.4 11.9-3.6 18.1-3.6z"/>
		</g>
		<g id="Hapto-icon">
			<g id="Layer">
				<path id="Growth_bar_2-2" class="s1" d="m25.3 31.1c-2.5 0-4.5-2-4.5-4.4 0-2.5 2-4.5 4.5-4.5h39.9c2.4 0 4.4 2 4.4 4.5 0 2.4-2 4.4-4.4 4.4z"/>
			</g>
			<path id="Growth_bar_1" class="s1" d="m32.3 29.6c0-2.5 2-4.5 4.5-4.5 2.5 0 4.5 2 4.5 4.5v28.3c0 2.5-2 4.5-4.5 4.5-2.5 0-4.5-2-4.5-4.5z"/>
			<path id="Growth_bar_1-2" class="s1" d="m42 53.7c2.5 0 4.6 2 4.6 4.4 0.1 2.5-1.9 4.6-4.4 4.6l-5.3 0.1c-2.4 0-4.5-1.9-4.5-4.4-0.1-2.5 1.9-4.5 4.4-4.6z"/>
			<g id="Growth_Arrow">
				<path id="Path_5" class="s1" d="m24.4 74.8c0 0 16 4.7 27.2-0.6 11.1-5.2 18.1-20.1 18.1-20.1 0.6-1.9 3.8-0.5 4.7 1.2 1.3 2.7 0.4 3.6-0.4 5.1 0 0-8.5 14.2-19.6 19.4-11.2 5.3-29.4 1.7-30.2 0l-0.4-0.9c-0.9-1.7-0.6-3.5 0.6-4.1z"/>
				<path id="Path_6" class="s1" d="m76.1 61.7c0 0 3.1-8.1 0.5-10.1-2.6-2-10.8 2.2-10.8 2.2-0.3-0.2 0.3-1.2 1.3-2.3l0.4-0.5c1-1.1 2-1.8 2.3-1.6 0 0 7.4-3.3 10-1.4 2.6 2 0.3 9.3 0.3 9.3 0.3 0.2-0.3 1.3-1.3 2.3l-0.5 0.6c-0.9 1.1-2 1.8-2.2 1.5z"/>
			</g>
		</g>
	</g>
</svg>